HIERARCHY
ROOT Hips
{
	OFFSET 0.00000 0.00000 0.00000
	CHANNELS 6 Xposition Yposition Zposition Yrotation Zrotation Xrotation 
	JOINT Lumbar
	{
		OFFSET 0 0 0
		CHANNELS 3 Zrotation Xrotation Yrotation
		JOINT Neck
		{
			OFFSET 0.00 0.2701 0.00
			CHANNELS 3 Zrotation Xrotation Yrotation
			End Site
			{
				OFFSET 0.00 0.1379 0.00
			}
		}
		JOINT RightShoulder
		{
			OFFSET 0.0119 0.2289 0.1181
			CHANNELS 3 Zrotation Xrotation Yrotation
			JOINT RightElbow
			{
				OFFSET 0.00 -0.1475 0.00
				CHANNELS 2 Zrotation Yrotation
				JOINT RightWrist
				{
					OFFSET 0.00 -0.1605 0.00
					CHANNELS 2 Zrotation Xrotation
					End Site
					{
						OFFSET 0.0040 -0.1068 0.0006
					}
				}
			}
		}
		JOINT LeftShoulder
		{
			OFFSET 0.0119 0.2289 -0.1181
			CHANNELS 3 Zrotation Xrotation Yrotation
			JOINT LeftElbow
			{
				OFFSET 0.00 -0.1475 0.00
				CHANNELS 2 Zrotation Yrotation
				JOINT LeftWrist
				{
					OFFSET 0.00 -0.1605 0.00
					CHANNELS 2 Zrotation Xrotation
					End Site
					{
						OFFSET 0.0040 -0.1068 -0.0006
					}
				}
			}
		}
	}
	JOINT RightHip
	{
		OFFSET 0.0316 -0.0424 0.0458
		CHANNELS 3 Zrotation Xrotation Yrotation
		JOINT RightKnee
		{
			OFFSET 0.00 -0.2438 0.00
			CHANNELS 1 Zrotation
			JOINT RightAnkle
			{
				OFFSET 0.00 -0.2449 0.00
				CHANNELS 3 Zrotation Xrotation Yrotation
				End Site
				{
					OFFSET 0.1237 -0.0542 0.0051
				}
			}
		}
	}
	JOINT LeftHip
	{
		OFFSET 0.0316 -0.0424 -0.0458
		CHANNELS 3 Zrotation Xrotation Yrotation
		JOINT LeftKnee
		{
			OFFSET 0.00 -0.2438 0.00
			CHANNELS 1 Zrotation
			JOINT LeftAnkle
			{
				OFFSET 0.00 -0.2449 0.00
				CHANNELS 3 Zrotation Xrotation Yrotation
				End Site
				{
					OFFSET 0.1237 -0.0542 -0.0051
				}
			}
		}
	}
}
MOTION
Frames: 33
Frame Time: 0.02
0.00164 0.0009 -0.00178 29.00332 -19.80129 -4.32841 44.62993 -0.85694 -7.77144 -10.97268 2.62672 -1.07182 -17.94066 -7.04317 2.66328 25.79086 59.0175 -1.4712 -4.42517 -20.67597 7.40279 -4.45707 29.8514 -82.23078 8.13193 1.47096 28.23528 -2.81478 -2.52226 -20.00445 -6.69224 -3.748 -4.06514 33.3964 4.51933 10.37179 -24.19929 -6.3377 1.52115 2.96073
0.00192 0.00087 -0.00193 29.00919 -19.81135 -4.30395 44.60565 -0.85536 -7.67826 -10.88496 2.61039 -1.0728 -17.83476 -6.76838 1.58173 25.73594 66.17609 0.38668 -3.20556 -20.51381 7.31726 -4.1927 29.78908 -86.6372 9.58868 0.79069 28.21336 -2.93218 -3.03178 -20.01691 -6.65793 -3.70717 -4.04231 33.38381 4.45963 10.23658 -24.20504 -6.33319 1.53293 2.96784
0.00219 0.00085 -0.00209 29.01505 -19.82139 -4.27956 44.58144 -0.85378 -7.58539 -10.79758 2.5941 -1.07377 -17.72927 -6.4949 0.5054 25.68146 73.3037 2.23656 -1.99124 -20.35227 7.23232 -3.93005 29.72737 -91.02455 11.03912 0.11338 28.19149 -3.04926 -3.53996 -20.02936 -6.62372 -3.66644 -4.01955 33.37124 4.40009 10.10168 -24.21078 -6.3287 1.54468 2.97492
0.00246 0.00082 -0.00224 29.02092 -19.83141 -4.25516 44.55724 -0.85221 -7.49251 -10.71016 2.57781 -1.07474 -17.62367 -6.22101 -0.57255 25.62663 80.43851 4.08827 -0.77568 -20.19056 7.14706 -3.66662 29.66515 -95.41636 12.49104 -0.56463 28.16962 -3.16631 -4.04794 -20.04179 -6.58952 -3.62572 -3.99679 33.35867 4.34056 9.96685 -24.21651 -6.32421 1.55642 2.982
0.00273 0.00079 -0.00239 29.02677 -19.84148 -4.23071 44.53296 -0.85063 -7.3993 -10.62233 2.5615 -1.07572 -17.51774 -5.94569 -1.65635 25.57159 87.60842 5.94904 0.44587 -20.02838 7.06124 -3.4012 29.60264 -99.82971 13.95006 -1.24599 28.14775 -3.28367 -4.55717 -20.05422 -6.55523 -3.5849 -3.97397 33.34612 4.28088 9.83178 -24.22225 -6.3197 1.56819 2.98909
0.003 0.00076 -0.00254 29.03264 -19.85146 -4.20646 44.5089 -0.84904 -7.30714 -10.53587 2.54527 -1.07669 -17.41324 -5.67614 -2.7169 25.51848 94.64726 7.77608 1.64502 -19.8683 6.9782 -3.14443 29.54285 -104.16245 15.3825 -1.91478 28.1259 -3.40013 -5.06313 -20.0667 -6.52119 -3.54436 -3.95131 33.33351 4.22165 9.69726 -24.22799 -6.31523 1.57991 2.99615
0.00327 0.00073 -0.00269 29.03851 -19.86153 -4.1818 44.48447 -0.84749 -7.21301 -10.4469 2.52886 -1.07767 -17.30569 -5.39513 -3.82317 25.46069 101.9394 9.66823 2.88748 -19.70366 6.88934 -2.87037 29.47648 -108.65116 16.86637 -2.60791 28.10394 -3.51828 -5.57505 -20.07907 -6.48669 -3.50332 -3.92837 33.32095 4.16155 9.56171 -24.23372 -6.3107 1.59171 3.00328
0.00354 0.0007 -0.00284 29.04432 -19.87165 -4.15755 44.46029 -0.84586 -7.12063 -10.35995 2.51266 -1.07864 -17.20149 -5.12495 -4.88705 25.40875 109.00282 11.50169 4.09079 -19.54414 6.80642 -2.61257 29.41829 -112.9987 18.30368 -3.27902 28.08226 -3.63487 -6.0816 -20.09153 -6.4526 -3.46271 -3.90568 33.30852 4.10232 9.42723 -24.23947 -6.30623 1.60344 3.01034
0.00382 0.00067 -0.00299 29.05032 -19.88131 -4.1337 44.43675 -0.84431 -7.03062 -10.2766 2.49654 -1.07961 -17.0992 -4.86696 -5.90014 25.3579 115.76874 13.25841 5.24335 -19.38723 6.72853 -2.37345 29.36177 -117.16394 19.68092 -3.92162 28.06017 -3.74962 -6.58132 -20.10416 -6.41904 -3.42273 -3.88333 33.29551 4.04385 9.29351 -24.24518 -6.3018 1.61508 3.01733
0.00409 0.00064 -0.00315 29.05601 -19.89206 -4.10722 44.41055 -0.84284 -6.92767 -10.17594 2.47941 -1.0806 -16.97938 -4.53567 -7.20856 25.28256 124.19254 15.44166 6.67921 -19.20435 6.61497 -2.02325 29.27062 -122.34882 21.3943 -4.72346 28.03821 -3.87515 -7.11956 -20.11599 -6.38252 -3.37941 -3.85911 33.28364 3.98011 9.15375 -24.25097 -6.29704 1.62724 3.02476
0.00436 0.00061 -0.00329 29.06183 -19.90151 -4.08649 44.3893 -0.84086 -6.85158 -10.10963 2.46478 -1.08155 -16.90071 -4.36103 -7.89203 25.2705 129.15339 16.73472 7.52301 -19.08322 6.58092 -1.90962 29.26846 -125.40144 22.40462 -5.19244 28.01737 -3.97778 -7.57698 -20.12942 -6.35221 -3.34297 -3.83876 33.27078 3.92808 9.02782 -24.25669 -6.29303 1.63826 3.03124
0.00466 0.00061 -0.00338 29.07199 -19.89815 -4.0801 44.38676 -0.8403 -6.85346 -10.1574 2.45436 -1.08225 -16.90402 -4.60557 -6.85927 25.34407 124.22605 15.47956 6.67872 -19.07865 6.73249 -2.43058 29.38639 -122.38545 21.41546 -4.71279 27.98697 -4.01809 -7.8064 -20.1477 -6.3394 -3.32702 -3.82985 33.24239 3.90354 8.93108 -24.26114 -6.29063 1.64644 3.03528
0.00495 0.00062 -0.00345 29.0814 -19.89458 -4.0798 44.38787 -0.83863 -6.88152 -10.23667 2.44707 -1.08298 -16.95588 -5.01039 -5.1998 25.50114 115.8903 13.34933 5.25121 -19.14757 6.96995 -3.18959 29.61934 -117.26687 19.73302 -3.90508 27.95925 -4.03518 -7.95551 -20.16739 -6.33281 -3.31766 -3.82468 33.21455 3.8917 8.8497 -24.26564 -6.28908 1.65338 3.03834
0.00524 0.00062 -0.00352 29.08871 -19.89791 -4.07756 44.38443 -0.83578 -6.89483 -10.28775 2.43995 -1.0837 -17.00381 -5.34756 -3.82718 25.67286 109.36929 11.68934 4.13258 -19.21529 7.18932 -3.85201 29.87734 -113.25479 18.41406 -3.27092 27.93955 -4.06271 -8.14585 -20.18629 -6.32299 -3.30422 -3.81726 33.19586 3.87699 8.76717 -24.27093 -6.28741 1.66074 3.04176
0.00556 0.00063 -0.00363 29.10685 -19.87506 -4.07161 44.3947 -0.84042 -6.92024 -10.39472 2.42565 -1.08418 -16.96913 -5.65905 -2.44219 25.60778 101.72994 9.72424 2.8296 -19.14037 7.32034 -4.47505 29.7983 -108.60852 16.89054 -2.53421 27.88405 -4.09118 -8.31737 -20.2063 -6.31462 -3.29541 -3.81214 33.14089 3.84975 8.66061 -24.27313 -6.28455 1.66884 3.04557
0.00583 0.00063 -0.00365 29.10161 -19.9035 -4.07513 44.37539 -0.82873 -6.92666 -10.39617 2.42763 -1.08545 -17.12575 -6.06716 -0.93758 26.07441 95.59883 8.18346 1.76998 -19.38856 7.65589 -5.22514 30.46212 -104.7755 15.62721 -1.93161 27.89972 -4.11156 -8.50741 -20.22374 -6.30502 -3.27848 -3.80313 33.15737 3.85199 8.60703 -24.28138 -6.28447 1.67494 3.04829
0.00594 0.00064 -0.00344 29.03746 -20.1022 -4.1004 44.29095 -0.77623 -6.87403 -10.06851 2.46865 -1.08643 -17.73127 -6.65628 0.76486 27.82828 94.59653 8.06622 1.54818 -20.43519 8.53239 -6.36357 33.03246 -103.79395 15.26982 -1.79601 28.14733 -4.12073 -8.78242 -20.23879 -6.28783 -3.23796 -3.78246 33.40892 3.92897 8.70208 -24.30991 -6.29092 1.67709 3.04874
0.006 0.00064 -0.00315 28.94881 -20.348 -4.13543 44.17413 -0.70671 -6.80131 -9.63879 2.52687 -1.08859 -18.5393 -7.34432 2.55919 30.14363 95.20861 8.40063 1.5876 -21.81697 9.61131 -7.60299 36.36766 -103.68927 15.19638 -1.80394 28.4607 -4.12168 -9.07617 -20.25036 -6.26965 -3.18899 -3.75776 33.72628 4.03564 8.84871 -24.34395 -6.30028 1.67708 3.04806
0.0061 0.00065 -0.0029 28.86778 -20.55249 -4.16801 44.0597 -0.6422 -6.73808 -9.27597 2.5806 -1.09189 -19.30001 -8.01936 4.30103 32.30806 94.9949 8.50235 1.49205 -23.09706 10.60062 -8.73419 39.42982 -103.12113 14.97981 -1.73524 28.71904 -4.12265 -9.35215 -20.26005 -6.25371 -3.14353 -3.73488 33.98736 4.13126 8.9678 -24.37304 -6.30896 1.67716 3.04753
0.00615 0.00063 -0.0026 28.80148 -20.83775 -4.19281 43.99424 -0.58864 -6.67475 -8.82918 2.62047 -1.08838 -19.87743 -8.57092 6.12134 34.03813 95.04283 8.68456 1.44349 -24.17266 11.58684 -10.13967 42.18339 -102.74469 14.79322 -1.70236 29.07961 -4.13797 -9.6646 -20.28396 -6.23057 -3.09954 -3.71213 34.35566 4.2178 9.10498 -24.41217 -6.31506 1.68076 3.0484
0.00627 0.00067 -0.0024 28.69881 -20.97009 -4.23554 43.82304 -0.50888 -6.60589 -8.5307 2.69316 -1.09901 -20.87935 -9.39379 7.77772 36.80159 94.98394 8.82376 1.36829 -25.74448 12.62145 -10.99119 45.75714 -102.216 14.62731 -1.63433 29.24791 -4.12241 -9.90633 -20.27794 -6.22194 -3.05061 -3.68819 34.52144 4.32914 9.21623 -24.43206 -6.32708 1.67675 3.04621
0.0066 0.00088 -0.0025 28.50094 -20.63254 -4.32993 43.33332 -0.35539 -6.53244 -8.68354 2.853 -1.15127 -23.04155 -11.00268 9.07781 42.31236 94.16389 8.68672 1.14493 -28.67254 13.78196 -10.31825 51.43065 -100.96631 14.39629 -1.42655 28.82473 -4.01818 -9.95119 -20.18564 -6.25501 -2.98824 -3.66118 34.0667 4.51036 9.24601 -24.39429 -6.35578 1.65023 3.03503
0.007 0.00115 -0.00271 28.2677 -20.14585 -4.44118 42.74456 -0.17718 -6.45325 -8.98601 3.04499 -1.21719 -25.61454 -12.86838 10.18513 48.83714 93.21112 8.50382 0.89072 -32.07281 14.97547 -9.07848 57.89725 -99.56046 14.19017 -1.18161 28.21358 -3.88433 -9.92437 -20.06416 -6.30243 -2.92149 -3.63324 33.41388 4.71387 9.24756 -24.33753 -6.39014 1.61646 3.02097
0.00736 0.00139 -0.00286 28.05087 -19.75158 -4.54169 42.22388 -0.01384 -6.3724 -9.20859 3.22191 -1.27497 -27.97724 -14.57644 11.29865 54.8773 92.38301 8.37738 0.66059 -35.21521 16.12663 -8.0762 63.98722 -98.29232 14.01005 -0.96016 27.71826 -3.76764 -9.92845 -19.959 -6.34232 -2.85798 -3.60622 32.88195 4.9014 9.25985 -24.29163 -6.4212 1.58739 3.00882
0.00774 0.00166 -0.00302 27.8308 -19.2564 -4.65543 41.60525 0.16564 -6.30758 -9.4772 3.40191 -1.34091 -30.45548 -16.46338 12.75641 61.0391 91.33732 8.11647 0.39666 -38.56258 17.40231 -7.15862 70.17738 -96.76896 13.67962 -0.71519 27.09888 -3.63481 -9.93901 -19.84087 -6.38639 -2.78898 -3.57698 32.22377 5.11456 9.28183 -24.23669 -6.4554 1.55249 2.99415
0.00809 0.00188 -0.0032 27.61063 -18.93353 -4.74562 41.16683 0.31691 -6.20988 -9.68757 3.58222 -1.39315 -32.77693 -18.03426 13.45396 67.1791 90.69277 8.11807 0.19256 -41.57756 18.4214 -5.93353 76.33092 -95.73234 13.66737 -0.50914 26.68989 -3.52895 -9.92032 -19.74276 -6.42524 -2.7304 -3.55216 31.77839 5.27942 9.27744 -24.19578 -6.48441 1.5278 2.98396
0.00828 0.00197 -0.00339 27.38836 -19.13848 -4.76552 41.25631 0.38621 -6.0092 -9.69388 3.76141 -1.40365 -34.65542 -18.69425 12.06548 73.02103 91.18979 8.86304 0.16085 -43.66853 18.7429 -3.95641 82.23557 -96.04136 14.50018 -0.41361 26.92928 -3.50243 -9.82462 -19.70824 -6.44574 -2.70247 -3.54013 31.98835 5.30351 9.19637 -24.19997 -6.49715 1.53506 2.98781
0.00842 0.00201 -0.00359 27.16922 -19.51876 -4.76132 41.52943 0.42584 -5.77829 -9.63787 3.93866 -1.39999 -36.34191 -19.02131 9.92525 78.79865 92.0899 9.87022 0.18981 -45.38537 18.80025 -1.69759 88.06069 -96.84335 15.65364 -0.35842 27.38254 -3.50446 -9.70384 -19.69471 -6.46058 -2.68513 -3.53256 32.41532 5.27838 9.0914 -24.21859 -6.50454 1.55247 2.99609
0.00859 0.00207 -0.0038 26.95576 -19.80846 -4.76882 41.71487 0.47764 -5.57028 -9.61557 4.11282 -1.40319 -38.05855 -19.48513 8.14988 84.5995 92.79319 10.75049 0.18921 -47.20156 18.96528 0.40681 93.89157 -97.44571 16.6801 -0.28869 27.72356 -3.49512 -9.60424 -19.6708 -6.4783 -2.66237 -3.5227 32.73006 5.27693 9.00433 -24.22943 -6.51474 1.56393 3.00169
0.00875 0.00213 -0.00396 26.71142 -20.13937 -4.77369 41.91535 0.53575 -5.32339 -9.57679 4.30473 -1.4051 -40.03934 -20.02284 6.26633 90.47221 93.53883 11.66231 0.19367 -49.33769 19.18458 2.64647 99.89043 -97.96036 17.63873 -0.20394 28.12174 -3.47833 -9.4633 -19.64934 -6.49523 -2.64175 -3.5138 33.09566 5.27089 8.887 -24.24472 -6.52359 1.58078 3.00998
0.00891 0.0022 -0.00423 26.53216 -20.42756 -4.77817 42.12857 0.57348 -5.15033 -9.55422 4.45895 -1.40612 -41.40821 -20.31987 4.43642 96.15313 94.30804 12.571 0.20541 -50.70628 19.22667 4.6588 105.49564 -98.75132 18.80165 -0.15778 28.45392 -3.4838 -9.40037 -19.62825 -6.51228 -2.61956 -3.50412 33.40907 5.26227 8.82684 -24.25448 -6.53383 1.58893 3.0138
0.00909 0.00232 -0.00483 26.53583 -20.55946 -4.78683 42.33962 0.56096 -5.18893 -9.60283 4.50786 -1.40827 -41.2258 -20.06916 2.9022 101.42748 94.89729 13.40638 0.1922 -50.09692 18.85197 6.01535 110.1498 -100.40049 20.56118 -0.23155 28.55366 -3.54783 -9.58665 -19.6023 -6.53084 -2.58771 -3.48983 33.52926 5.2596 8.93455 -24.24499 -6.54978 1.57046 3.004
0.00927 0.00246 -0.00556 26.60428 -20.6422 -4.79596 42.55612 0.5291 -5.30269 -9.66702 4.51904 -1.4099 -40.41677 -19.57979 1.45585 106.48383 95.50976 14.22822 0.1873 -48.71725 18.30651 7.12277 114.38362 -102.27024 22.49563 -0.33841 28.58014 -3.63284 -9.84827 -19.5763 -6.54967 -2.55437 -3.47483 33.5897 5.2556 9.09951 -24.22966 -6.56715 1.54301 2.98964
